<svg xmlns="http://www.w3.org/2000/svg" width="24" height="24" viewBox="0 0 24 24" fill="none" stroke="#6BFF93" stroke-width="2" stroke-linecap="round" stroke-linejoin="round">
  <path d="M6 10.6a6 6 0 0 1 12 0v3a2.2 2.2 0 0 1-1.4 2v2.3a.9.9 0 0 1-.9.9H8.3a.9.9 0 0 1-.9-.9v-2.3A2.2 2.2 0 0 1 6 13.6z"/>
  <path d="M10.6 18.6v1.4M13.4 18.6v1.4"/>
  <circle cx="9.4" cy="11.6" r="1.7" fill="#FFB020" stroke="none"/>
  <circle cx="14.6" cy="11.6" r="1.7" fill="#FFB020" stroke="none"/>
  <path d="M12 14l-1 1.8h2z" fill="#6BFF93" stroke="none"/>
</svg>
